<?xml version="1.0" encoding="UTF-8" standalone="no"?>
<!-- Created with Inkscape (http://www.inkscape.org/) -->

<svg
   width="68.297272mm"
   height="90.405739mm"
   viewBox="0 0 68.297271 90.405739"
   version="1.1"
   id="svg85767"
   inkscape:version="1.1.1 (3bf5ae0d25, 2021-09-20)"
   sodipodi:docname="quesbunnyleft.svg"
   xmlns:inkscape="http://www.inkscape.org/namespaces/inkscape"
   xmlns:sodipodi="http://sodipodi.sourceforge.net/DTD/sodipodi-0.dtd"
   xmlns="http://www.w3.org/2000/svg"
   xmlns:svg="http://www.w3.org/2000/svg">
  <sodipodi:namedview
     id="namedview85769"
     pagecolor="#ffffff"
     bordercolor="#666666"
     borderopacity="1.0"
     inkscape:pageshadow="2"
     inkscape:pageopacity="0.0"
     inkscape:pagecheckerboard="0"
     inkscape:document-units="mm"
     showgrid="false"
     inkscape:zoom="1.0482005"
     inkscape:cx="161.70571"
     inkscape:cy="142.14838"
     inkscape:window-width="1400"
     inkscape:window-height="778"
     inkscape:window-x="2344"
     inkscape:window-y="135"
     inkscape:window-maximized="0"
     inkscape:current-layer="layer1" />
  <defs
     id="defs85764" />
  <g
     inkscape:label="Layer 1"
     inkscape:groupmode="layer"
     id="layer1"
     transform="translate(-81.104604,-89.846953)">
    <g
       id="g1787">
      <path
         style="fill:none;stroke:#ff6866;stroke-width:1.13515;stroke-linecap:butt;stroke-linejoin:miter;stroke-miterlimit:4;stroke-dasharray:none;stroke-opacity:1"
         d="m 88.002812,144.5015 c 0,0 -1.7798,-3.29627 -1.86574,-9.26771 -0.0859,-5.97144 2.05475,-14.80163 2.05475,-14.80163 0,0 1.24417,9.8995 1.64548,14.80046 0.40131,4.90096 0.79803,7.02035 0.79803,7.02035"
         id="path87021"
         sodipodi:nodetypes="cccsc" />
      <path
         style="fill:#000002;fill-opacity:1;stroke:#ff6866;stroke-width:1.13515;stroke-linecap:butt;stroke-linejoin:miter;stroke-miterlimit:4;stroke-dasharray:none;stroke-opacity:1"
         d="m 91.245272,143.41566 c 0,0 -1.77979,-3.29628 -1.86574,-9.26771 -0.0859,-5.97144 2.05476,-14.80163 2.05476,-14.80163 0,0 1.24416,9.89949 1.64548,14.80045 0.4013,4.90097 0.98429,9.75761 0.98429,9.75761"
         id="path87023"
         sodipodi:nodetypes="cccsc" />
      <ellipse
         style="fill:#000000;fill-opacity:1;stroke:#ff6866;stroke-width:1.13515;stroke-miterlimit:4;stroke-dasharray:none;stroke-opacity:1"
         id="ellipse87025"
         cx="92.11956"
         cy="151.65936"
         rx="8.397254"
         ry="8.255991" />
      <ellipse
         style="fill:#000000;fill-opacity:1;stroke:#ff6866;stroke-width:1.13515;stroke-miterlimit:4;stroke-dasharray:none;stroke-opacity:1"
         id="ellipse87027"
         cx="107.27476"
         cy="166.19949"
         rx="13.752464"
         ry="13.485621" />
      <ellipse
         style="fill:#000000;fill-opacity:1;stroke:#ff6866;stroke-width:1.13515;stroke-miterlimit:4;stroke-dasharray:none;stroke-opacity:1"
         id="ellipse87029"
         cx="118.90549"
         cy="171.32538"
         rx="5.858439"
         ry="5.5283422" />
      <ellipse
         style="fill:#000000;fill-opacity:1;stroke:#ff6866;stroke-width:1.13515;stroke-miterlimit:4;stroke-dasharray:none;stroke-opacity:1"
         id="ellipse87031"
         cx="93.416908"
         cy="149.98907"
         rx="3.1386466"
         ry="2.8932784" />
      <ellipse
         style="fill:#ff6866;fill-opacity:1;stroke:#ff6866;stroke-width:0.88163;stroke-miterlimit:4;stroke-dasharray:none;stroke-opacity:1"
         id="ellipse87033"
         cx="93.303474"
         cy="149.9198"
         rx="0.26816913"
         ry="0.21647489" />
      <ellipse
         style="fill:#000000;fill-opacity:1;stroke:#ff6866;stroke-width:1.13515;stroke-miterlimit:4;stroke-dasharray:none;stroke-opacity:1"
         id="ellipse87035"
         cx="83.6157"
         cy="154.57263"
         rx="1.9435211"
         ry="1.9088181" />
      <ellipse
         style="fill:#ff6866;fill-opacity:1;stroke:#ff6866;stroke-width:0.604;stroke-miterlimit:4;stroke-dasharray:none;stroke-opacity:1"
         id="ellipse87039"
         cx="107.2065"
         cy="127.8958"
         rx="2.4311132"
         ry="2.6851013" />
      <ellipse
         style="fill:#ff6866;fill-opacity:1;stroke:#ff6866;stroke-width:0.604;stroke-miterlimit:4;stroke-dasharray:none;stroke-opacity:1"
         id="ellipse87041"
         cx="101.4437"
         cy="137.20407"
         rx="2.4311132"
         ry="2.6851013" />
      <text
         xml:space="preserve"
         style="font-style:normal;font-variant:normal;font-weight:normal;font-stretch:normal;font-size:22.5778px;line-height:1.25;font-family:Arial;-inkscape-font-specification:Arial;fill:#ff6866;fill-opacity:1;stroke-width:0.264583"
         x="118.15015"
         y="116.02262"
         id="text87045"><tspan
           sodipodi:role="line"
           id="tspan87043"
           style="font-style:normal;font-variant:normal;font-weight:normal;font-stretch:normal;font-size:22.5778px;font-family:Arial;-inkscape-font-specification:Arial;fill:#ff6866;fill-opacity:1;stroke-width:0.264583"
           x="118.15015"
           y="116.02262">?</tspan></text>
      <path
         style="fill:#ffffff;fill-opacity:1;stroke:#ff6866;stroke-width:1.404;stroke-opacity:1"
         id="path87047"
         d="m 106.57828,102.7977 c -0.92926,1.17565 -1.5757,2.55001 -1.73035,4.05134 -0.0395,0.38311 -0.027,0.76981 -0.0404,1.15471 0.0439,0.65611 0.0517,1.36493 0.24189,2.00454 0.39065,1.31395 1.16911,2.26768 2.12177,3.20379 0.82076,0.6718 1.75728,1.25065 2.77547,1.57483 0.45494,0.14485 0.69854,0.15711 1.15931,0.21707 0.40822,0.0341 0.80607,-0.0245 1.2053,-0.0947 0.0467,-0.008 0.16943,0.0163 0.14057,-0.0213 -0.037,-0.0481 -0.12457,-0.004 -0.17961,-0.0296 -0.0354,-0.0165 -0.0507,-0.0594 -0.0761,-0.0891 -0.12493,1.03528 -0.1844,2.0769 -0.23347,3.11807 -0.0781,1.58128 0.18628,3.21226 1.03778,4.57804 0.22741,0.36477 0.52365,0.68181 0.78548,1.02272 1.69329,1.62671 3.81549,2.68381 6.0809,3.24368 1.46265,0.17621 2.76176,-0.54818 4.00704,-1.21795 0.80211,-0.40969 1.15364,-0.90856 0.82131,-1.77431 -0.0711,-0.14792 -0.21989,-0.49969 -0.32979,0.32722 -0.013,0.0979 0.14945,0.12933 0.22745,0.18992 0.48908,0.37988 1.00016,0.71394 1.52726,1.03791 1.93785,0.87189 4.13443,0.91421 6.21873,0.73898 2.40171,-0.2814 3.37398,-1.68463 4.6031,-3.58023 0.69449,-1.31202 1.69677,-2.69329 1.54438,-4.25971 -0.0184,-0.1893 -0.0808,-0.3717 -0.12121,-0.55755 -0.25538,-0.72644 -0.96343,-1.20354 -1.73068,-1.00642 -0.0581,0.0618 -0.15252,0.10348 -0.17414,0.18548 -0.16116,0.61122 0.84751,0.55143 1.13997,0.56572 0.25739,0.0126 0.51509,0.0178 0.77264,0.0267 1.58611,-0.0534 3.21228,-0.0603 4.77324,-0.39233 0.28858,-0.0614 0.56904,-0.15611 0.85356,-0.23417 1.3525,-0.4676 2.77747,-1.0901 3.67984,-2.2582 0.19886,-0.25743 0.34413,-0.55211 0.5162,-0.82816 0.1118,-0.3687 0.25742,-0.72878 0.33542,-1.10608 0.36647,-1.77282 0.0975,-3.52271 -0.43502,-5.22014 -0.80586,-1.74473 -2.00402,-2.20502 -3.77795,-2.59066 -0.69638,-0.22668 -2.07522,-0.25506 -2.59797,-0.81498 -0.32535,-0.34847 -0.47159,-1.04034 -0.59728,-1.43754 -0.51366,-1.54457 -0.63036,-3.26494 -1.5466,-4.65485 -0.80555,-1.22198 -1.30481,-1.48027 -2.46695,-2.45895 -0.62164,-0.38106 -1.22567,-0.79248 -1.86492,-1.1432 -1.83772,-1.00822 -4.4359,-2.16112 -6.53997,-2.45284 -0.33519,-0.0465 -0.67639,-0.0233 -1.01458,-0.035 -0.96937,0.18785 -1.39417,0.82991 -1.91485,1.58464 -0.13432,0.1947 -0.22664,0.42783 -0.40611,0.5819 -0.36715,0.31518 -0.77466,0.1499 -1.18711,0.0962 -1.52433,-0.54662 -2.94113,-1.34819 -4.38778,-2.06788 -0.3155,-0.15696 -0.62394,-0.32965 -0.94865,-0.46657 -0.34254,-0.14443 -0.69993,-0.25075 -1.0499,-0.37613 -1.12072,-0.33175 -2.28313,-0.45758 -3.44475,-0.53308 -0.40807,-0.0265 -1.28498,-0.0772 -1.71138,-0.003 -0.25958,0.0453 -0.50328,0.15635 -0.75492,0.23452 -0.23846,0.15682 -0.49889,0.28448 -0.7154,0.47045 -1.31988,1.13375 -1.82932,2.78388 -2.23201,4.40143 -0.41013,1.75879 -0.5142,3.55497 -0.33616,5.34805 0.0356,0.35602 0.53908,0.30569 0.50349,-0.0503 v 0 c -0.17467,-1.73534 -0.0714,-3.47369 0.32385,-5.17613 0.36672,-1.49015 0.8387,-3.03643 2.02373,-4.10349 0.17735,-0.15969 0.39199,-0.27231 0.58798,-0.40846 0.2079,-0.0702 0.40773,-0.17183 0.62371,-0.21063 0.41023,-0.0737 1.25909,-0.0233 1.64577,0.002 1.11772,0.0719 2.23677,0.18993 3.31614,0.50538 0.33218,0.11786 0.67174,0.21669 0.99654,0.35359 0.32342,0.13631 0.63059,0.30833 0.94482,0.46465 1.50314,0.7478 2.97261,1.594 4.57298,2.12 0.76142,0.037 1.03663,0.20952 1.644,-0.31088 0.18165,-0.15565 0.276,-0.39082 0.41066,-0.58853 0.41352,-0.60714 0.71505,-1.16553 1.48011,-1.36181 0.30693,0.008 0.61659,-0.0182 0.9208,0.0233 2.05472,0.28072 4.58935,1.41028 6.38509,2.39047 0.61804,0.33734 1.20252,0.73284 1.80377,1.09925 1.09212,0.9109 1.58056,1.16692 2.34131,2.30119 0.91162,1.35923 0.99728,3.06932 1.5162,4.5816 0.22324,0.66782 0.29977,1.20578 0.81484,1.71272 0.60874,0.59912 1.97282,0.63957 2.75495,0.87767 1.61381,0.34421 2.63694,0.67819 3.4019,2.24812 0.63451,2.00347 0.81644,3.87551 0.15125,5.90892 -0.15038,0.24794 -0.27589,0.51281 -0.45115,0.74384 -0.83677,1.10305 -2.18462,1.67795 -3.44875,2.12 -0.26534,0.0739 -0.52665,0.16428 -0.79602,0.22181 -1.52976,0.32671 -3.12404,0.33245 -4.67859,0.3867 -0.25225,-0.009 -0.50462,-0.0143 -0.75674,-0.0259 -0.22876,-0.0105 -0.45819,-0.0626 -0.68593,-0.0386 -0.0588,0.006 0.0379,0.31612 -0.14947,0.27109 0.0644,-0.0654 0.0296,-0.043 0.20324,-0.0239 0.42677,0.0468 0.72404,0.25067 0.8704,0.66411 0.1046,0.43323 0.16864,0.55649 0.11971,1.03515 -0.12706,1.24293 -0.92524,2.31463 -1.47428,3.39456 -1.13407,1.75396 -1.99524,3.08795 -4.22128,3.35107 -1.97671,0.17038 -4.06414,0.1356 -5.91113,-0.66605 -0.50643,-0.31036 -0.99784,-0.63092 -1.46774,-0.99515 -0.0748,-0.058 -0.12361,-0.18774 -0.2181,-0.18192 -0.17714,0.0109 -0.3217,0.15001 -0.48254,0.22502 0.003,0.005 0.005,0.009 0.008,0.0139 0.25406,0.61887 0.005,0.83598 -0.59044,1.14304 -1.13051,0.60889 -2.31815,1.2981 -3.64653,1.17212 -2.15566,-0.52589 -4.17716,-1.53427 -5.80158,-3.06217 -0.24349,-0.31137 -0.51955,-0.59982 -0.73045,-0.93412 -0.81427,-1.29073 -1.06309,-2.83464 -0.98738,-4.33295 0.0485,-1.03086 0.10727,-2.06217 0.23106,-3.08719 -0.0175,-0.102 0.009,-0.2229 -0.0526,-0.30601 -0.0597,-0.0805 -0.17376,-0.10627 -0.27111,-0.13019 -0.21792,-0.0535 -1.00377,0.28292 -1.20542,0.11425 -0.3908,-0.0488 -0.65426,-0.0649 -1.03689,-0.18552 -0.9551,-0.30113 -1.83585,-0.84069 -2.60826,-1.4663 -0.85733,-0.83331 -1.62283,-1.76127 -1.9777,-2.93281 -0.18198,-0.60075 -0.19115,-1.28076 -0.23394,-1.89696 0.0274,-0.88624 -0.009,-1.2686 0.20646,-2.13198 0.2493,-0.99982 0.81496,-1.91763 1.4197,-2.7363 0.25065,-0.25532 -0.11043,-0.6098 -0.36108,-0.35448 z" />
      <path
         style="fill:#f4d7d7;fill-opacity:1;stroke:#ff6866;stroke-width:1.404;stroke-opacity:1"
         id="path87049"
         d="m 106.93938,103.15221 c 0.3459,-0.28252 0.67923,-0.57982 1.02037,-0.86794 0.10219,-0.0863 0.29202,-0.23514 0.28103,-0.24635 -0.12322,-0.12572 -0.29042,-0.19902 -0.43564,-0.29853 -0.1296,0.11511 -0.24953,0.24016 -0.36749,0.36693 -0.24352,0.26213 0.12719,0.60652 0.37071,0.34438 v 0 c 0.0994,-0.10722 0.20091,-0.21251 0.30791,-0.31226 -0.0805,-0.14995 -0.14901,-0.30701 -0.24157,-0.44984 -0.008,-0.0122 -0.0178,0.0232 -0.0288,0.0327 -0.0704,0.061 -0.14381,0.11832 -0.21494,0.1784 -0.31884,0.26928 -0.63333,0.5437 -0.94885,0.81683 -0.30809,0.18192 -0.0508,0.61764 0.25727,0.43572 z" />
    </g>
  </g>
</svg>
