<?xml version="1.0" encoding="UTF-8" standalone="no"?>
<!-- Created with Inkscape (http://www.inkscape.org/) -->

<svg
   width="66.051643mm"
   height="62.988094mm"
   viewBox="0 0 66.051643 62.988094"
   version="1.1"
   id="svg6885"
   inkscape:version="1.1.1 (3bf5ae0d25, 2021-09-20)"
   sodipodi:docname="sun.svg"
   xmlns:inkscape="http://www.inkscape.org/namespaces/inkscape"
   xmlns:sodipodi="http://sodipodi.sourceforge.net/DTD/sodipodi-0.dtd"
   xmlns="http://www.w3.org/2000/svg"
   xmlns:svg="http://www.w3.org/2000/svg">
  <sodipodi:namedview
     id="namedview6887"
     pagecolor="#ffffff"
     bordercolor="#666666"
     borderopacity="1.0"
     inkscape:pageshadow="2"
     inkscape:pageopacity="0.0"
     inkscape:pagecheckerboard="0"
     inkscape:document-units="mm"
     showgrid="false"
     inkscape:zoom="0.74118967"
     inkscape:cx="335.2718"
     inkscape:cy="277.93156"
     inkscape:window-width="1920"
     inkscape:window-height="1008"
     inkscape:window-x="1920"
     inkscape:window-y="33"
     inkscape:window-maximized="1"
     inkscape:current-layer="layer1" />
  <defs
     id="defs6882" />
  <g
     inkscape:label="Layer 1"
     inkscape:groupmode="layer"
     id="layer1"
     transform="translate(-16.593169,-74.883357)">
    <g
       id="g2042"
       transform="matrix(0.57032437,0,0,0.57032437,-8.23224,40.530057)">
      <path
         style="fill:#ffff00;fill-opacity:1;stroke:none;stroke-width:1.4;stroke-opacity:1"
         id="path1930"
         d="m 82.012302,83.143404 c -2.154729,0.772522 -4.905795,1.533837 -6.477063,3.2899 -0.640938,0.716317 -1.090705,1.583037 -1.636059,2.374554 -0.442278,1.17948 -0.961329,2.332958 -1.326835,3.538442 -1.260404,4.156977 -1.861064,8.6089 -1.834968,12.94875 0.02178,3.62268 0.334404,4.75384 0.893435,8.27776 0.997892,4.9966 2.733302,9.35889 6.159214,13.20227 2.546318,2.85661 3.33807,3.14556 6.546104,5.46801 1.547352,0.83451 3.050947,1.75581 4.642053,2.50353 6.597166,3.10024 14.400917,5.16113 21.637347,5.98692 1.60499,0.18316 3.22275,0.22816 4.83413,0.34223 3.38859,-0.25026 5.81301,-0.0707 8.92427,-1.69356 4.43711,-2.31445 7.20515,-7.03903 8.32089,-11.77383 0.45724,-1.94039 0.47116,-3.95913 0.70675,-5.9387 -0.15244,-2.05494 -0.12039,-4.13197 -0.45731,-6.16483 -1.00762,-6.07962 -3.68859,-11.56381 -7.25698,-16.527457 -2.83921,-3.949343 -3.83639,-4.658738 -7.24203,-8.025696 -1.28736,-1.025091 -2.52006,-2.122868 -3.86209,-3.075276 -4.4188,-3.135934 -9.53204,-5.406826 -14.769985,-6.764512 -0.990224,-0.256669 -2.001295,-0.424868 -3.001944,-0.637299 -2.882355,-0.544335 -5.816955,-0.515684 -8.643892,0.302048 -1.178994,0.341038 -1.911612,0.711809 -3.035888,1.208985 -0.47852,0.233394 -0.957037,0.466791 -1.435558,0.700185 -2.521357,1.232175 -0.778798,4.797912 1.742557,3.565737 v 0 c 0.436417,-0.213728 0.872836,-0.427458 1.309253,-0.641189 0.751036,-0.338219 1.552647,-0.732258 2.347458,-0.974947 2.255705,-0.688761 4.590904,-0.71641 6.900852,-0.276699 0.892336,0.184875 1.794044,0.329203 2.677009,0.554628 6.277508,1.602682 12.094958,4.620548 16.988588,8.867179 1.15612,1.131843 2.37919,2.199114 3.46834,3.395528 4.77615,5.246475 8.60076,11.579905 9.85818,18.644935 0.31757,1.78436 0.31216,3.61133 0.46824,5.41699 -0.16397,1.67186 -0.14439,3.37204 -0.4919,5.01558 -0.70455,3.33215 -2.71257,7.58512 -5.83391,9.35969 -2.51989,1.43262 -4.59408,1.26753 -7.40607,1.50329 -1.50369,-0.10215 -3.01323,-0.13917 -4.51107,-0.30647 -6.84118,-0.7641 -14.109319,-2.66978 -20.362497,-5.56258 -1.439551,-0.66595 -2.802152,-1.487 -4.203229,-2.2305 -2.896529,-2.05091 -3.430204,-2.18138 -5.738059,-4.69529 -3.021176,-3.29092 -4.482777,-7.0514 -5.360522,-11.37968 -0.515262,-3.14995 -0.812561,-4.2356 -0.84687,-7.47143 -0.05239,-4.94062 0.813623,-9.886049 2.533084,-14.513066 0.283112,-0.494207 0.508021,-1.026668 0.849341,-1.482622 0.587812,-0.785228 1.183347,-0.982329 2.054823,-1.379649 0.962957,-0.439025 1.953453,-0.818978 2.963109,-1.135811 2.698356,-0.770956 1.608055,-4.587004 -1.090298,-3.816048 z" />
      <path
         style="fill:#ffff00;fill-opacity:1;stroke:none;stroke-width:1.4;stroke-opacity:1"
         id="path1932"
         d="m 123.86573,79.922983 c 3.52544,-3.055271 6.55006,-6.639682 9.65105,-10.111243 1.86945,-2.092999 -1.0905,-4.736801 -2.95995,-2.643801 v 0 c -2.83934,3.179088 -5.64714,6.39536 -8.72661,9.348036 -2.40912,1.43932 -0.37361,4.846328 2.03551,3.407008 z" />
      <path
         style="fill:#ffff00;fill-opacity:1;stroke:none;stroke-width:1.4;stroke-opacity:1"
         id="path1936"
         d="m 137.42486,95.817863 c 1.05974,-0.449458 2.01477,-1.111125 3.07093,-1.567748 0.81885,-0.354026 1.93768,-0.717029 2.76184,-0.999945 2.50097,-0.867516 4.93973,-1.910835 7.38231,-2.930499 2.58948,-1.081715 1.0597,-4.743786 -1.52977,-3.662069 v 0 c -2.36401,0.98824 -4.72507,1.998139 -7.14514,2.840215 -1.21908,0.42127 -2.06063,0.68362 -3.23604,1.19851 -1.06629,0.467087 -2.03617,1.125143 -3.10566,1.585229 -2.50055,1.273877 -0.69902,4.810184 1.80153,3.536307 z" />
      <path
         style="fill:#ffff00;fill-opacity:1;stroke:none;stroke-width:1.4;stroke-opacity:1"
         id="path1938"
         d="m 142.03115,115.36485 c 3.3034,-0.23605 6.60674,-0.42327 9.91712,-0.5322 1.79099,-0.0454 3.58106,-0.081 5.37113,-0.15403 2.80397,-0.11511 2.64118,-4.08052 -0.16279,-3.96541 v 0 c -1.77933,0.0736 -3.55879,0.10603 -5.33903,0.15284 -3.34995,0.11051 -6.69287,0.29963 -10.03579,0.53789 -2.80078,0.17632 -2.55143,4.13723 0.24936,3.96091 z" />
      <path
         style="fill:#ffff00;fill-opacity:1;stroke:none;stroke-width:1.4;stroke-opacity:1"
         id="path1940"
         d="m 136.19725,137.5451 c 2.12477,1.24102 4.32387,2.34597 6.49652,3.49896 1.31426,0.72336 2.5917,1.50752 3.86492,2.29982 2.38329,1.4817 4.47873,-1.88878 2.09544,-3.37047 v 0 c -1.35069,-0.83899 -2.70504,-1.67091 -4.10013,-2.43514 -2.15136,-1.1414 -4.32883,-2.23534 -6.43258,-3.46427 -2.45444,-1.36059 -4.37861,2.11051 -1.92417,3.4711 z" />
      <path
         style="fill:#ffff00;fill-opacity:1;stroke:none;stroke-width:1.4;stroke-opacity:1"
         id="path1942"
         d="m 111.24163,149.99482 c -0.25396,4.15888 -0.61857,8.31116 -0.86147,12.47176 -0.0725,1.99698 -0.19602,3.99149 -0.31686,5.98595 -0.16968,2.80119 3.79181,3.04115 3.96149,0.23995 v 0 c 0.12096,-1.99741 0.2448,-3.99487 0.31739,-5.99481 0.24694,-4.23752 0.62979,-8.46593 0.8682,-12.70285 0,-2.80633 -3.96875,-2.80633 -3.96875,0 z" />
      <path
         style="fill:#ffff00;fill-opacity:1;stroke:none;stroke-width:1.4;stroke-opacity:1"
         id="path1944"
         d="m 82.881487,143.35605 c -1.098859,1.00726 -2.469718,1.59047 -3.761821,2.29421 -1.912808,1.19267 -3.757274,2.49295 -5.594827,3.79783 -0.868685,0.66643 -1.785048,1.22155 -2.758945,1.71579 -2.491346,1.29177 -0.664493,4.81507 1.82685,3.52329 v 0 c 1.129133,-0.59469 2.217163,-1.22238 3.230324,-2.00348 1.711145,-1.21573 3.431516,-2.42165 5.20083,-3.55135 1.549181,-0.85133 3.180019,-1.57984 4.488262,-2.80467 2.101255,-1.86016 -0.529418,-4.83179 -2.630673,-2.97162 z" />
      <path
         style="fill:#ffff00;fill-opacity:1;stroke:none;stroke-width:1.4;stroke-opacity:1"
         id="path1946"
         d="m 62.92834,112.82842 c -5.087297,0.0407 -10.177245,-0.0914 -15.262338,0.081 -0.725551,0.0523 -1.451102,0.10459 -2.176656,0.15689 -2.798932,0.20361 -2.51098,4.1619 0.287954,3.95829 v 0 c 0.675042,-0.0496 1.350087,-0.0992 2.025132,-0.14878 5.039357,-0.17596 10.084281,-0.0327 15.125908,-0.0786 2.806333,0 2.806333,-3.96875 0,-3.96875 z" />
      <path
         style="fill:#ffff00;fill-opacity:1;stroke:none;stroke-width:1.4;stroke-opacity:1"
         id="path1948"
         d="M 72.29332,79.051244 C 68.831263,74.539172 64.756931,70.54462 60.730555,66.544433 c -1.990852,-1.977877 -4.787992,0.837615 -2.79714,2.815489 v 0 c 3.801353,3.776522 7.63017,7.551261 10.968934,11.753432 1.458132,2.397778 4.849101,0.335669 3.390971,-2.06211 z" />
      <path
         style="fill:#ffff00;fill-opacity:1;stroke:none;stroke-width:1.4;stroke-opacity:1"
         id="path1950"
         d="m 99.577439,77.179627 c 0.2555,-4.369321 -0.04079,-8.746929 -0.21771,-13.11392 -0.02281,-0.600524 -0.04559,-1.201049 -0.06839,-1.801574 -0.106465,-2.804308 -4.072358,-2.653742 -3.965892,0.150567 v 0 c 0.02294,0.603892 0.04586,1.207783 0.06879,1.811676 0.168288,4.153191 0.443439,8.314195 0.243893,12.470778 -0.341159,2.785517 3.598153,3.26799 3.939315,0.482473 z" />
    </g>
  </g>
</svg>
