<?xml version="1.0" encoding="UTF-8" standalone="no"?>
<!-- Created with Inkscape (http://www.inkscape.org/) -->

<svg
   width="112.66108mm"
   height="150.67035mm"
   viewBox="0 0 112.66108 150.67035"
   version="1.1"
   id="svg1128"
   inkscape:version="1.1.1 (3bf5ae0d25, 2021-09-20)"
   sodipodi:docname="tree-landing.svg"
   xmlns:inkscape="http://www.inkscape.org/namespaces/inkscape"
   xmlns:sodipodi="http://sodipodi.sourceforge.net/DTD/sodipodi-0.dtd"
   xmlns="http://www.w3.org/2000/svg"
   xmlns:svg="http://www.w3.org/2000/svg">
  <sodipodi:namedview
     id="namedview1130"
     pagecolor="#ffffff"
     bordercolor="#666666"
     borderopacity="1.0"
     inkscape:pageshadow="2"
     inkscape:pageopacity="0.0"
     inkscape:pagecheckerboard="0"
     inkscape:document-units="mm"
     showgrid="false"
     inkscape:zoom="0.74118967"
     inkscape:cx="277.25697"
     inkscape:cy="466.81708"
     inkscape:window-width="1920"
     inkscape:window-height="1008"
     inkscape:window-x="1920"
     inkscape:window-y="33"
     inkscape:window-maximized="1"
     inkscape:current-layer="layer1" />
  <defs
     id="defs1125" />
  <g
     inkscape:label="Layer 1"
     inkscape:groupmode="layer"
     id="layer1"
     transform="translate(-31.841333,-24.973718)">
    <g
       id="g1029"
       transform="translate(-145.02216,-89.353903)">
      <g
         id="g5427"
         transform="matrix(1.1289888,0,0,1.1289888,-77.654579,88.342)">
        <path
           style="fill:#5c2f14;fill-opacity:1;stroke:none;stroke-width:1.4;stroke-opacity:1"
           id="path3731"
           d="m 262.36409,67.855943 c 0.0477,8.122491 -0.0789,16.243858 -0.1913,24.365275 -0.1638,8.006312 -0.0562,16.017552 -0.3605,24.020462 -0.20342,3.14218 -0.36598,6.36687 -1.34649,9.38913 -0.62918,1.93935 -1.88795,4.59555 -2.68578,6.38008 -3.04883,6.40699 -5.94828,12.87824 -8.66154,19.43389 -1.0731,2.59306 2.59403,4.11065 3.66714,1.5176 v 0 c 2.69897,-6.52253 5.58643,-12.95954 8.61877,-19.33441 1.03162,-2.31661 2.14628,-4.62436 2.9155,-7.05006 1.04169,-3.28487 1.24504,-6.7743 1.4583,-10.18591 0.30358,-8.0348 0.20148,-16.07763 0.36298,-24.115838 0.11269,-8.139729 0.23929,-16.279416 0.19166,-24.420219 0,-2.80633 -3.96874,-2.80633 -3.96874,0 z" />
        <path
           style="fill:#5c2f14;fill-opacity:1;stroke:none;stroke-width:1.4;stroke-opacity:1"
           id="path3733"
           d="m 276.57774,67.876922 c 0.45257,3.494138 0.70006,7.007391 0.87545,10.524765 0.0761,3.454191 -0.23336,6.90137 -0.37266,10.350817 -0.019,0.66326 -0.0552,1.326251 -0.0569,1.989778 -0.004,1.422855 0.0875,3.753022 0.13721,5.150535 0.10277,2.886784 0.20069,5.773023 0.28096,8.660543 0.23374,5.6582 -0.43243,11.27666 -1.0882,16.88273 -0.31938,3.42714 -0.80489,6.85091 -0.95973,10.29254 -0.0775,1.72355 -0.0201,2.08573 0.0658,3.77241 0.18314,1.43391 0.29602,2.89223 0.6345,4.3024 0.34943,1.45584 0.88847,2.84417 1.43459,4.23368 0.96978,2.54275 2.06526,5.02935 3.21112,7.49703 0.84733,1.72444 0.42656,0.8655 1.26238,2.57678 1.23161,2.52163 4.79772,0.77988 3.56611,-1.74175 v 0 c -0.82762,-1.69448 -0.41789,-0.85895 -1.22897,-2.50668 -1.1132,-2.39675 -2.17921,-4.81081 -3.11869,-7.28164 -0.45559,-1.15039 -0.9316,-2.31058 -1.22714,-3.51601 -0.30313,-1.2365 -0.39799,-2.51745 -0.57076,-3.77461 -0.0786,-1.40715 -0.1357,-1.82411 -0.0713,-3.26502 0.15147,-3.38666 0.63037,-6.75569 0.94395,-10.12806 0.67784,-5.79569 1.35388,-11.60503 1.11353,-17.45413 -0.0806,-2.89631 -0.17844,-5.79136 -0.28178,-8.686926 -0.0408,-1.14147 -0.13909,-3.695927 -0.1365,-4.900575 0.003,-0.648018 0.0369,-1.295508 0.0553,-1.943264 0.14338,-3.568536 0.46749,-7.134871 0.37094,-10.708574 -0.17713,-3.540321 -0.41849,-7.078085 -0.87955,-10.594509 -0.18931,-2.799937 -4.14904,-2.532197 -3.9597,0.26774 z" />
        <path
           style="fill:#219d0f;fill-opacity:1;stroke:none;stroke-width:1.4;stroke-opacity:1"
           id="path4659"
           d="m 261.13539,61.042166 c -4.60395,-0.985989 -9.23613,-1.896354 -13.92858,-2.344336 -0.90338,-0.08624 -1.81041,-0.128637 -2.71562,-0.192958 -3.09472,-0.02164 -6.1488,0.422754 -9.15823,1.111851 -1.2804,0.293185 -3.83342,0.959054 -5.09831,1.503905 -0.75854,0.326736 -1.45819,0.776025 -2.18728,1.164039 -0.60134,0.492853 -1.20268,0.985703 -1.80402,1.478556 -2.13915,1.816462 0.42971,4.841676 2.56886,3.025214 v 0 c 0.38073,-0.341072 0.76145,-0.682144 1.14218,-1.023216 0.51794,-0.295248 1.00797,-0.646025 1.55384,-0.885743 1.1508,-0.50537 3.46715,-1.106357 4.61763,-1.374018 2.65691,-0.618133 5.35363,-1.02726 8.08738,-1.041582 0.84183,0.05833 1.6854,0.09533 2.52547,0.175 4.62081,0.438232 9.1791,1.345481 13.71293,2.312694 2.76437,0.483484 3.44812,-3.425923 0.68375,-3.909406 z" />
        <path
           style="fill:#219d0f;fill-opacity:1;stroke:none;stroke-width:1.4;stroke-opacity:1"
           id="path4661"
           d="m 278.55976,64.772664 c 2.47166,-0.425355 4.97663,-0.644308 7.47427,-0.848567 3.13486,-0.256368 4.33549,-0.420589 7.53575,-0.127124 1.39396,0.127828 2.77056,0.40251 4.15584,0.603766 5.94945,1.284832 11.76359,3.28278 17.12981,6.17524 0.72475,0.390657 1.42616,0.823187 2.13924,1.234781 2.68322,1.714278 1.36522,0.862089 3.95478,2.55537 2.34884,1.5357 4.52064,-1.786083 2.1718,-3.321783 v 0 c -2.67776,-1.750534 -1.29611,-0.858531 -4.14676,-2.673263 -0.77721,-0.446183 -1.54196,-0.914786 -2.33161,-1.338553 -5.75136,-3.086447 -11.9797,-5.218108 -18.35772,-6.5609 -1.52918,-0.213783 -3.04922,-0.508725 -4.58758,-0.64135 -3.39852,-0.292994 -4.74692,-0.127518 -8.02349,0.141423 -2.50706,0.205779 -5.02425,0.421256 -7.50486,0.851471 -2.7927,0.276151 -2.40217,4.225639 0.39053,3.949489 z" />
        <path
           style="fill:#219d0f;fill-opacity:1;stroke:none;stroke-width:1.4;stroke-opacity:1"
           id="path4663"
           d="m 233.65371,38.72843 c 4.52185,2.433619 9.17719,4.70412 13.26821,7.849116 3.15931,2.428732 3.89834,3.4329 6.62174,6.306208 0.91274,1.101382 1.82547,2.20276 2.73821,3.304141 1.79297,2.158876 4.84608,-0.376772 3.05311,-2.535645 v 0 c -0.97236,-1.168405 -1.94471,-2.336808 -2.91706,-3.505211 -3.03228,-3.171417 -3.74544,-4.161784 -7.25751,-6.846712 -4.26624,-3.261485 -9.1024,-5.640216 -13.81528,-8.162174 -2.53871,-1.196014 -4.23013,2.394262 -1.69142,3.590277 z" />
        <path
           style="fill:#219d0f;fill-opacity:1;stroke:none;stroke-width:1.4;stroke-opacity:1"
           id="path4665"
           d="m 250.58348,30.223719 c 0.5121,0.416883 1.06466,0.788501 1.53632,1.250651 3.25815,3.192468 5.46548,5.837428 8.25745,9.611857 1.60554,2.170515 3.06436,4.44581 4.59655,6.668715 1.59404,2.309659 4.8604,0.05534 3.26634,-2.254317 v 0 c -1.58766,-2.297557 -3.09804,-4.650512 -4.76303,-6.89267 -2.92131,-3.933955 -5.40265,-6.909152 -8.87675,-10.231612 -0.59851,-0.572384 -1.29957,-1.026864 -1.94935,-1.540293 -2.39545,-1.461964 -4.46298,1.925706 -2.06753,3.387669 z" />
        <path
           style="fill:#219d0f;fill-opacity:1;stroke:none;stroke-width:1.4;stroke-opacity:1"
           id="path4667"
           d="m 279.75327,61.202995 c 1.21314,-6.295935 2.84075,-12.52865 5.06407,-18.549252 0.6808,-1.843545 1.37684,-3.689434 2.25671,-5.446691 0.78401,-1.56578 1.81377,-2.99593 2.72066,-4.493895 4.13395,-4.468532 1.99464,-2.450859 6.36667,-6.106914 2.14526,-1.809223 -0.41336,-4.843098 -2.55863,-3.033875 v 0 c -4.93916,4.19687 -2.50886,1.857523 -7.21159,7.099507 -0.99502,1.673162 -2.11801,3.276558 -2.98503,5.019488 -0.91927,1.848027 -1.64605,3.78814 -2.35968,5.724895 -2.27285,6.168472 -3.93753,12.553833 -5.18359,19.002081 -0.55483,2.750934 3.33558,3.535593 3.89041,0.784656 z" />
        <path
           style="fill:#219d0f;fill-opacity:1;stroke:none;stroke-width:1.4;stroke-opacity:1"
           id="path4669"
           d="m 290.07763,57.086663 c 0.74432,-0.165798 1.48206,-0.364696 2.233,-0.497395 2.55516,-0.451525 12.47156,-1.939377 14.16976,-2.192189 6.6779,-0.994133 10.32825,-1.507541 16.92437,-2.451521 2.77801,-0.397571 2.21577,-4.326292 -0.56224,-3.928724 v 0 c -6.6031,0.944996 -10.27134,1.460955 -16.95646,2.456249 -2.04695,0.304752 -11.69067,1.749547 -14.44517,2.24391 -0.83381,0.149648 -1.65248,0.373936 -2.47872,0.560903 -2.69322,0.788755 -1.57774,4.597522 1.11546,3.808767 z" />
        <path
           style="fill:#219d0f;fill-opacity:1;stroke:none;stroke-width:1.4;stroke-opacity:1"
           id="path4671"
           d="m 270.62033,65.547763 c 0.42169,-0.603422 1.10831,-1.090985 1.26508,-1.810266 1.02772,-4.715653 -5.35268,-9.195821 -8.26882,-11.444718 -4.10686,-3.167166 -9.0615,-6.303944 -13.38773,-9.146056 -2.05628,-1.28565 -4.11256,-2.5713 -6.16883,-3.85695 -2.37962,-1.487586 -4.48338,1.877702 -2.10377,3.365288 v 0 c 2.03134,1.269666 4.06268,2.539333 6.09401,3.809002 4.57763,3.005215 8.65403,5.569379 13.01976,8.872723 1.58757,1.201245 3.14057,2.453918 4.61029,3.796784 0.76451,0.698505 1.42504,1.505865 2.07534,2.31177 0.19431,0.240787 0.17071,0.673741 0.44667,0.813681 0.20632,0.104643 0.42875,-0.174011 0.64312,-0.261016 -2.51005,1.255029 -0.73517,4.804788 1.77488,3.549758 z" />
        <path
           style="fill:#219d0f;fill-opacity:1;stroke:none;stroke-width:1.4;stroke-opacity:1"
           id="path4673"
           d="m 261.78463,58.966004 c -6.2851,-2.348926 -12.76484,-4.14674 -19.20284,-6.022136 -2.69435,-0.784813 -3.80424,3.025582 -1.10989,3.810394 v 0 c 6.31068,1.838042 12.6622,3.599458 18.82647,5.891689 2.60211,1.050943 4.08837,-2.629003 1.48626,-3.679947 z" />
        <path
           style="fill:#219d0f;fill-opacity:1;stroke:none;stroke-width:1.4;stroke-opacity:1"
           id="path4675"
           d="m 243.2455,47.511448 c -2.17957,-1.032124 -4.39391,-1.989698 -6.60754,-2.945995 -2.57626,-1.112816 -4.15002,2.530568 -1.57376,3.643384 v 0 c 2.15896,0.932444 4.31852,1.866275 6.44489,2.87134 2.52347,1.227834 4.25989,-2.340895 1.73641,-3.568729 z" />
        <path
           style="fill:#219d0f;fill-opacity:1;stroke:none;stroke-width:1.4;stroke-opacity:1"
           id="path4677"
           d="m 248.33137,56.785435 c -4.05432,-3.110465 -8.05913,-6.3173 -11.72966,-9.880235 -0.69995,-0.679431 -1.36796,-1.391012 -2.05194,-2.08652 -0.53359,-0.604091 -1.06717,-1.208185 -1.60075,-1.812276 -1.86026,-2.101178 -4.83177,0.529619 -2.97152,2.630794 v 0 c 0.58146,0.65536 1.16291,1.310717 1.74437,1.966074 0.72514,0.735528 1.43368,1.4878 2.17541,2.20659 3.91734,3.796139 8.23304,7.311234 12.64296,10.517159 2.50428,1.26652 4.2954,-2.275068 1.79113,-3.541586 z" />
        <path
           style="fill:#219d0f;fill-opacity:1;stroke:none;stroke-width:1.4;stroke-opacity:1"
           id="path4679"
           d="m 259.80731,51.019395 c -0.2165,-5.324261 -0.17839,-10.654118 -0.17009,-15.981241 0.004,-2.806327 -3.96445,-2.812407 -3.96875,-0.0061 v 0 c -0.008,5.329103 -0.0477,10.661111 0.17009,15.987321 0,2.80633 3.96875,2.80633 3.96875,0 z" />
        <path
           style="fill:#219d0f;fill-opacity:1;stroke:none;stroke-width:1.4;stroke-opacity:1"
           id="path4681"
           d="m 252.2181,42.133972 c -0.0242,-2.308995 -0.5215,-4.576128 -0.94658,-6.834195 -0.52094,-2.757554 -4.42071,-2.020838 -3.89977,0.736719 v 0 c 0.38205,2.014767 0.84134,4.037293 0.8776,6.097476 0,2.806329 3.96875,2.806329 3.96875,0 z" />
        <path
           style="fill:#219d0f;fill-opacity:1;stroke:none;stroke-width:1.4;stroke-opacity:1"
           id="path4683"
           d="m 272.72398,54.204565 c 0,-0.371909 -0.0317,-0.745172 0,-1.115724 0.34732,-4.0547 1.42621,-8.033393 2.33693,-11.983709 0.62987,-2.734731 -3.23763,-3.625493 -3.86749,-0.890762 v 0 c -1.05061,4.565946 -2.38581,9.276982 -2.43819,13.990195 0,2.80633 3.96875,2.80633 3.96875,0 z" />
        <path
           style="fill:#219d0f;fill-opacity:1;stroke:none;stroke-width:1.4;stroke-opacity:1"
           id="path4685"
           d="m 278.95634,53.00079 c 0.36523,-0.153754 0.72081,-0.332838 1.0957,-0.461264 4.22923,-1.448824 10.54552,-3.342193 14.39635,-4.513564 3.4917,-1.06213 6.98769,-2.110107 10.48154,-3.165163 2.68653,-0.81126 1.53922,-4.61056 -1.14728,-3.7993 v 0 c -3.49936,1.056733 -7.0009,2.106237 -10.49809,3.170193 -4.10503,1.248886 -10.38942,3.12543 -14.78412,4.654954 -0.45164,0.157189 -0.87932,0.376257 -1.31897,0.564386 -2.51005,1.25503 -0.73518,4.804785 1.77487,3.549758 z" />
        <path
           style="fill:#219d0f;fill-opacity:1;stroke:none;stroke-width:1.4;stroke-opacity:1"
           id="path4687"
           d="m 287.89111,33.825354 c 2.6869,0.397725 5.38721,0.687337 8.08064,1.039027 2.78276,0.363111 3.29626,-3.572275 0.51353,-3.935386 v 0 c -2.54561,-0.331957 -5.0941,-0.628042 -7.6399,-0.955958 -2.72401,-0.674764 -3.67826,3.177556 -0.95427,3.852317 z" />
        <path
           style="fill:#219d0f;fill-opacity:1;stroke:none;stroke-width:1.4;stroke-opacity:1"
           id="path4689"
           d="m 260.5349,38.535033 c 3.94099,-0.904055 7.76371,-2.326735 11.5907,-3.607919 2.6611,-0.891083 1.40094,-4.654447 -1.26016,-3.763365 v 0 c -3.69541,1.237726 -7.38732,2.617364 -11.19148,3.497043 -2.73951,0.608777 -1.87856,4.483021 0.86094,3.874241 z" />
        <path
           style="fill:#219d0f;fill-opacity:1;stroke:none;stroke-width:1.4;stroke-opacity:1"
           id="path4691"
           d="m 275.49435,59.286645 c 0.79314,0.28009 1.56707,0.622157 2.37948,0.840271 4.37959,1.175854 8.27603,1.811028 12.79863,2.561011 3.58013,0.59369 10.26176,1.578795 13.9667,2.132486 2.77553,0.414774 3.36211,-3.510389 0.58658,-3.925163 v 0 c -3.71444,-0.555069 -10.26375,-1.520589 -13.86599,-2.116111 -3.97196,-0.656643 -8.24059,-1.354322 -12.1666,-2.395262 -0.76378,-0.202509 -1.4908,-0.524428 -2.23621,-0.786643 -2.60879,-1.034219 -4.07141,2.655191 -1.46259,3.689411 z" />
        <path
           style="fill:#219d0f;fill-opacity:1;stroke:none;stroke-width:1.4;stroke-opacity:1"
           id="path4693"
           d="m 290.89572,57.483845 c 1.45703,-1.150506 2.78514,-2.444027 4.16785,-3.678875 0.81777,-0.730332 1.67862,-1.412211 2.48351,-2.156722 2.40683,-2.22627 3.95502,-3.880678 6.23969,-6.230162 2.80178,-2.964042 5.34864,-6.138857 7.60093,-9.535168 1.54784,-2.340866 -1.76266,-4.529854 -3.3105,-2.18899 v 0 c -2.10658,3.196206 -4.51223,6.167834 -7.13626,8.957892 -2.08978,2.150723 -3.79703,3.96636 -5.99702,6.000668 -0.83579,0.772877 -1.72831,1.482349 -2.57722,2.240798 -1.32234,1.181396 -2.5907,2.420983 -3.98569,3.520176 -2.17109,1.778161 0.34362,4.848545 2.51471,3.070383 z" />
        <path
           style="fill:#219d0f;fill-opacity:1;stroke:none;stroke-width:1.4;stroke-opacity:1"
           id="path4695"
           d="m 282.29255,41.709575 c 2.26251,-1.066427 1.02775,-0.505238 3.71288,-1.664523 2.57595,-1.113525 1.00118,-4.756478 -1.57478,-3.642953 v 0 c -2.78503,1.205307 -1.52926,0.632757 -3.7782,1.693474 -2.55547,1.159732 -0.91537,4.773734 1.6401,3.614002 z" />
        <path
           style="fill:#219d0f;fill-opacity:1;stroke:none;stroke-width:1.4;stroke-opacity:1"
           id="path4697"
           d="m 265.92326,43.55379 c 3.76536,-2.125496 7.25522,-4.70426 10.78635,-7.186491 2.29565,-1.614154 0.013,-4.86069 -2.28275,-3.246533 v 0 c -3.40397,2.39409 -6.76703,4.883616 -10.39189,6.942267 -2.46833,1.33522 -0.58005,4.825974 1.88829,3.490757 z" />
        <path
           style="fill:#219d0f;fill-opacity:1;stroke:none;stroke-width:1.4;stroke-opacity:1"
           id="path4699"
           d="m 268.63751,46.52591 c -1.54905,4.136615 -0.67325,1.874914 -2.66033,6.772261 -1.05465,2.600616 2.62316,4.092115 3.67782,1.491499 v 0 c 2.05409,-5.067639 1.1412,-2.703412 2.77069,-7.080242 0.83687,-2.678644 -2.95133,-3.86216 -3.78818,-1.183518 z" />
        <path
           style="fill:#219d0f;fill-opacity:1;stroke:none;stroke-width:1.4;stroke-opacity:1"
           id="path4701"
           d="m 265.21515,67.540621 c 3.98444,-1.101159 7.85472,-2.60789 11.73592,-4.015941 2.638,-0.957303 1.28415,-4.688002 -1.35385,-3.7307 v 0 c -3.75883,1.364428 -7.50763,2.824999 -11.36387,3.90125 -2.7191,0.694245 -1.73729,4.539636 0.9818,3.845391 z" />
        <circle
           id="path4703"
           style="fill:#219d0f;fill-opacity:1;stroke:#000000;stroke-width:0.264583"
           cx="259.54218"
           cy="66.501434"
           r="0.24962991" />
        <circle
           id="path4705"
           style="fill:#219d0f;fill-opacity:1;stroke:#000000;stroke-width:0.264583"
           cx="259.54218"
           cy="66.501434"
           r="0.24962991" />
        <path
           style="fill:#219d0f;fill-opacity:1;stroke:none;stroke-width:1.4;stroke-opacity:1"
           id="path4707"
           d="m 248.24834,73.673136 c 2.89833,-1.404861 5.61472,-3.187608 8.65276,-4.297146 1.93213,-0.705641 3.61872,-1.078992 5.60597,-1.581867 2.71983,-0.69139 1.74205,-4.53781 -0.97778,-3.846417 v 0 c -2.32182,0.592706 -3.92354,0.939424 -6.19284,1.780979 -3.2414,1.202052 -6.16301,3.078044 -9.24513,4.613048 -2.35566,1.525238 -0.19864,4.856644 2.15702,3.331403 z" />
        <path
           style="fill:#219d0f;fill-opacity:1;stroke:none;stroke-width:1.4;stroke-opacity:1"
           id="path4709"
           d="m 282.58243,67.485624 c 7.22577,2.002941 14.5065,3.805042 21.72642,5.831639 5.64145,1.583521 6.60601,1.933014 11.99036,3.633862 1.49236,0.509939 2.98474,1.019878 4.47709,1.529818 2.65568,0.907105 3.93854,-2.848594 1.28284,-3.755702 v 0 c -1.5216,-0.519547 -3.04319,-1.039093 -4.56478,-1.55864 -5.47283,-1.727819 -6.41998,-2.072216 -12.15086,-3.680846 -7.1339,-2.002462 -14.32538,-3.792881 -21.47027,-5.753113 -2.65377,-0.91272 -3.94454,2.840262 -1.2908,3.752982 z" />
        <path
           style="fill:#219d0f;fill-opacity:1;stroke:none;stroke-width:1.4;stroke-opacity:1"
           id="path4711"
           d="m 272.19211,45.993375 c 2.07529,-0.923708 4.12628,-1.894798 6.17813,-2.869729 2.5346,-1.204709 0.83087,-4.789165 -1.70371,-3.584456 v 0 c -2.13936,1.017196 -4.28604,2.012527 -6.43675,3.004513 -2.43928,1.387578 -0.47694,4.83725 1.96233,3.449672 z" />
        <path
           style="fill:#219d0f;fill-opacity:1;stroke:none;stroke-width:1.4;stroke-opacity:1"
           id="path4713"
           d="m 274.30081,62.955132 c 3.51224,2.767537 7.36402,5.069737 11.15097,7.433911 2.38059,1.485998 4.48213,-1.880693 2.10151,-3.366691 v 0 c -2.57754,-1.608693 -4.49747,-2.779831 -7.01937,-4.45961 -0.8242,-0.548971 -1.62226,-1.136346 -2.44202,-1.691884 -0.248,-0.168044 -0.50713,-0.318989 -0.76071,-0.478485 -1.81213,-2.142805 -4.84251,0.419954 -3.03038,2.562759 z" />
      </g>
      <g
         id="g8755"
         transform="matrix(0.80850869,0,0,0.80850869,138.95281,75.187085)">
        <path
           style="fill:none;stroke:#feffff;stroke-width:1.404;stroke-linecap:butt;stroke-linejoin:miter;stroke-miterlimit:4;stroke-dasharray:none;stroke-opacity:1"
           d="m 61.823004,190.54799 c 0,0 -2.201331,-4.07698 -2.307629,-11.46272 -0.106237,-7.38575 2.541411,-18.30732 2.541411,-18.30732 0,0 1.538839,12.24414 2.035205,18.30587 0.496351,6.06173 0.987037,8.68308 0.987037,8.68308"
           id="path7740"
           sodipodi:nodetypes="cccsc" />
        <path
           style="fill:#000002;fill-opacity:1;stroke:#feffff;stroke-width:1.404;stroke-linecap:butt;stroke-linejoin:miter;stroke-miterlimit:4;stroke-dasharray:none;stroke-opacity:1"
           d="m 65.833433,189.20497 c 0,0 -2.201331,-4.07698 -2.307629,-11.46272 -0.106237,-7.38575 2.541411,-18.30732 2.541411,-18.30732 0,0 1.538839,12.24414 2.035205,18.30586 0.496351,6.06174 1.217411,12.06866 1.217411,12.06866"
           id="use8105"
           sodipodi:nodetypes="cccsc" />
        <ellipse
           style="fill:#000000;fill-opacity:1;stroke:#fefffe;stroke-width:1.404;stroke-miterlimit:4;stroke-dasharray:none;stroke-opacity:1"
           id="path6839"
           cx="66.91478"
           cy="199.40115"
           rx="10.386103"
           ry="10.211382" />
        <ellipse
           style="fill:#000000;fill-opacity:1;stroke:#fefffe;stroke-width:1.404;stroke-miterlimit:4;stroke-dasharray:none;stroke-opacity:1"
           id="path6153"
           cx="85.659416"
           cy="217.38504"
           rx="17.009668"
           ry="16.679625" />
        <ellipse
           style="fill:#000000;fill-opacity:1;stroke:#fefffe;stroke-width:1.404;stroke-miterlimit:4;stroke-dasharray:none;stroke-opacity:1"
           id="path6749"
           cx="100.04483"
           cy="223.72498"
           rx="7.2459812"
           ry="6.8377032" />
        <ellipse
           style="fill:#000000;fill-opacity:1;stroke:#fefffe;stroke-width:1.404;stroke-miterlimit:4;stroke-dasharray:none;stroke-opacity:1"
           id="path6865"
           cx="68.519402"
           cy="197.33527"
           rx="3.8820195"
           ry="3.578537" />
        <ellipse
           style="fill:#ffffff;fill-opacity:1;stroke:#fefffe;stroke-width:1.09044;stroke-miterlimit:4;stroke-dasharray:none;stroke-opacity:1"
           id="path6969"
           cx="68.379105"
           cy="197.24959"
           rx="0.33168367"
           ry="0.26774591" />
        <ellipse
           style="fill:#000000;fill-opacity:1;stroke:#fefffe;stroke-width:1.404;stroke-miterlimit:4;stroke-dasharray:none;stroke-opacity:1"
           id="path6971"
           cx="56.39682"
           cy="203.00441"
           rx="2.4038346"
           ry="2.3609123" />
      </g>
    </g>
  </g>
</svg>
